<mxfile host="Electron" agent="Mozilla/5.0 (Macintosh; Intel Mac OS X 10_15_7) AppleWebKit/537.36 (KHTML, like Gecko) draw.io/24.7.17 Chrome/128.0.6613.36 Electron/32.0.1 Safari/537.36" version="24.7.17">
  <diagram name="페이지-1" id="6wSQMjQMqUMqQHniMQ-A">
    <mxGraphModel dx="2901" dy="1214" grid="1" gridSize="10" guides="1" tooltips="1" connect="1" arrows="1" fold="1" page="1" pageScale="1" pageWidth="827" pageHeight="1169" math="0" shadow="0">
      <root>
        <mxCell id="0" />
        <mxCell id="1" parent="0" />
        <mxCell id="-IfUSNtYotDQCfkknMRN-38" value="&lt;meta charset=&quot;utf-8&quot;&gt;&lt;div style=&quot;color: #cccccc;background-color: #1b1b1b;font-family: Menlo, Monaco, &#39;Courier New&#39;, monospace;font-weight: normal;font-size: 12px;line-height: 18px;white-space: pre;&quot;&gt;&lt;div&gt;&lt;span style=&quot;color: #c586c0;&quot;&gt;else&lt;/span&gt;&lt;span style=&quot;color: #d4d4d4;&quot;&gt; {&lt;/span&gt;&lt;/div&gt;&lt;div&gt;&lt;span style=&quot;color: #d4d4d4;&quot;&gt;            oper2 = &lt;/span&gt;&lt;span style=&quot;color: #dcdcaa;&quot;&gt;pop&lt;/span&gt;&lt;span style=&quot;color: #d4d4d4;&quot;&gt;();&lt;/span&gt;&lt;/div&gt;&lt;div&gt;&lt;span style=&quot;color: #d4d4d4;&quot;&gt;            oper1 = &lt;/span&gt;&lt;span style=&quot;color: #dcdcaa;&quot;&gt;pop&lt;/span&gt;&lt;span style=&quot;color: #d4d4d4;&quot;&gt;();&lt;/span&gt;&lt;/div&gt;&lt;div&gt;&lt;span style=&quot;color: #d4d4d4;&quot;&gt;            &lt;/span&gt;&lt;span style=&quot;color: #c586c0;&quot;&gt;switch&lt;/span&gt;&lt;span style=&quot;color: #d4d4d4;&quot;&gt;(symbol) {&lt;/span&gt;&lt;/div&gt;&lt;div&gt;&lt;span style=&quot;color: #d4d4d4;&quot;&gt;                &lt;/span&gt;&lt;span style=&quot;color: #c586c0;&quot;&gt;case&lt;/span&gt;&lt;span style=&quot;color: #d4d4d4;&quot;&gt; &lt;/span&gt;&lt;span style=&quot;color: #ce9178;&quot;&gt;&#39;+&#39;&lt;/span&gt;&lt;span style=&quot;color: #d4d4d4;&quot;&gt;: &lt;/span&gt;&lt;span style=&quot;color: #dcdcaa;&quot;&gt;push&lt;/span&gt;&lt;span style=&quot;color: #d4d4d4;&quot;&gt;(oper1 + oper2); &lt;/span&gt;&lt;span style=&quot;color: #c586c0;&quot;&gt;break&lt;/span&gt;&lt;span style=&quot;color: #d4d4d4;&quot;&gt;;&lt;/span&gt;&lt;/div&gt;&lt;div&gt;&lt;span style=&quot;color: #d4d4d4;&quot;&gt;                &lt;/span&gt;&lt;span style=&quot;color: #c586c0;&quot;&gt;case&lt;/span&gt;&lt;span style=&quot;color: #d4d4d4;&quot;&gt; &lt;/span&gt;&lt;span style=&quot;color: #ce9178;&quot;&gt;&#39;-&#39;&lt;/span&gt;&lt;span style=&quot;color: #d4d4d4;&quot;&gt;: &lt;/span&gt;&lt;span style=&quot;color: #dcdcaa;&quot;&gt;push&lt;/span&gt;&lt;span style=&quot;color: #d4d4d4;&quot;&gt;(oper1 - oper2); &lt;/span&gt;&lt;span style=&quot;color: #c586c0;&quot;&gt;break&lt;/span&gt;&lt;span style=&quot;color: #d4d4d4;&quot;&gt;;&lt;/span&gt;&lt;/div&gt;&lt;div&gt;&lt;span style=&quot;color: #d4d4d4;&quot;&gt;                &lt;/span&gt;&lt;span style=&quot;color: #c586c0;&quot;&gt;case&lt;/span&gt;&lt;span style=&quot;color: #d4d4d4;&quot;&gt; &lt;/span&gt;&lt;span style=&quot;color: #ce9178;&quot;&gt;&#39;*&#39;&lt;/span&gt;&lt;span style=&quot;color: #d4d4d4;&quot;&gt;: &lt;/span&gt;&lt;span style=&quot;color: #dcdcaa;&quot;&gt;push&lt;/span&gt;&lt;span style=&quot;color: #d4d4d4;&quot;&gt;(oper1 * &lt;/span&gt;&lt;span style=&quot;color: #9cdcfe;&quot;&gt;oper2&lt;/span&gt;&lt;span style=&quot;color: #d4d4d4;&quot;&gt;); &lt;/span&gt;&lt;span style=&quot;color: #c586c0;&quot;&gt;break&lt;/span&gt;&lt;span style=&quot;color: #d4d4d4;&quot;&gt;;&lt;/span&gt;&lt;/div&gt;&lt;div&gt;&lt;span style=&quot;color: #d4d4d4;&quot;&gt;                &lt;/span&gt;&lt;span style=&quot;color: #c586c0;&quot;&gt;case&lt;/span&gt;&lt;span style=&quot;color: #d4d4d4;&quot;&gt; &lt;/span&gt;&lt;span style=&quot;color: #ce9178;&quot;&gt;&#39;/&#39;&lt;/span&gt;&lt;span style=&quot;color: #d4d4d4;&quot;&gt;: &lt;/span&gt;&lt;span style=&quot;color: #dcdcaa;&quot;&gt;push&lt;/span&gt;&lt;span style=&quot;color: #d4d4d4;&quot;&gt;(oper1 / oper2); &lt;/span&gt;&lt;span style=&quot;color: #c586c0;&quot;&gt;break&lt;/span&gt;&lt;span style=&quot;color: #d4d4d4;&quot;&gt;;&lt;/span&gt;&lt;/div&gt;&lt;div&gt;&lt;span style=&quot;color: #d4d4d4;&quot;&gt;            }&lt;/span&gt;&lt;/div&gt;&lt;div&gt;&lt;span style=&quot;color: #d4d4d4;&quot;&gt;        }&lt;/span&gt;&lt;/div&gt;&lt;/div&gt;" style="rounded=0;whiteSpace=wrap;html=1;" vertex="1" parent="1">
          <mxGeometry x="-90" y="150" width="1000" height="2960" as="geometry" />
        </mxCell>
        <mxCell id="-IfUSNtYotDQCfkknMRN-35" value="" style="rounded=0;whiteSpace=wrap;html=1;" vertex="1" parent="1">
          <mxGeometry x="-50" y="320" width="910" height="290" as="geometry" />
        </mxCell>
        <mxCell id="-IfUSNtYotDQCfkknMRN-175" style="edgeStyle=orthogonalEdgeStyle;rounded=0;orthogonalLoop=1;jettySize=auto;html=1;entryX=0.5;entryY=1;entryDx=0;entryDy=0;" edge="1" parent="1" source="-IfUSNtYotDQCfkknMRN-12" target="-IfUSNtYotDQCfkknMRN-36">
          <mxGeometry relative="1" as="geometry" />
        </mxCell>
        <mxCell id="-IfUSNtYotDQCfkknMRN-178" style="edgeStyle=orthogonalEdgeStyle;rounded=0;orthogonalLoop=1;jettySize=auto;html=1;exitX=0.5;exitY=1;exitDx=0;exitDy=0;entryX=0;entryY=0.5;entryDx=0;entryDy=0;" edge="1" parent="1" source="-IfUSNtYotDQCfkknMRN-12" target="-IfUSNtYotDQCfkknMRN-27">
          <mxGeometry relative="1" as="geometry" />
        </mxCell>
        <mxCell id="-IfUSNtYotDQCfkknMRN-12" value="&lt;font style=&quot;font-size: 28px;&quot;&gt;3&lt;/font&gt;" style="rounded=0;whiteSpace=wrap;html=1;fillColor=#dae8fc;strokeColor=#6c8ebf;" vertex="1" parent="1">
          <mxGeometry x="10" y="430" width="80" height="80" as="geometry" />
        </mxCell>
        <mxCell id="-IfUSNtYotDQCfkknMRN-176" style="edgeStyle=orthogonalEdgeStyle;rounded=0;orthogonalLoop=1;jettySize=auto;html=1;exitX=0.5;exitY=0;exitDx=0;exitDy=0;entryX=0.5;entryY=1;entryDx=0;entryDy=0;" edge="1" parent="1" source="-IfUSNtYotDQCfkknMRN-13" target="-IfUSNtYotDQCfkknMRN-173">
          <mxGeometry relative="1" as="geometry" />
        </mxCell>
        <mxCell id="-IfUSNtYotDQCfkknMRN-179" style="edgeStyle=orthogonalEdgeStyle;rounded=0;orthogonalLoop=1;jettySize=auto;html=1;exitX=0.5;exitY=1;exitDx=0;exitDy=0;entryX=0;entryY=0.5;entryDx=0;entryDy=0;" edge="1" parent="1" source="-IfUSNtYotDQCfkknMRN-13" target="-IfUSNtYotDQCfkknMRN-23">
          <mxGeometry relative="1" as="geometry">
            <Array as="points">
              <mxPoint x="130" y="530" />
              <mxPoint x="530" y="530" />
              <mxPoint x="530" y="500" />
            </Array>
          </mxGeometry>
        </mxCell>
        <mxCell id="-IfUSNtYotDQCfkknMRN-13" value="&lt;font style=&quot;font-size: 28px;&quot;&gt;6&lt;/font&gt;" style="rounded=0;whiteSpace=wrap;html=1;fillColor=#dae8fc;strokeColor=#6c8ebf;" vertex="1" parent="1">
          <mxGeometry x="90" y="430" width="80" height="80" as="geometry" />
        </mxCell>
        <mxCell id="-IfUSNtYotDQCfkknMRN-177" style="edgeStyle=orthogonalEdgeStyle;rounded=0;orthogonalLoop=1;jettySize=auto;html=1;entryX=0.5;entryY=1;entryDx=0;entryDy=0;" edge="1" parent="1" source="-IfUSNtYotDQCfkknMRN-14" target="-IfUSNtYotDQCfkknMRN-174">
          <mxGeometry relative="1" as="geometry" />
        </mxCell>
        <mxCell id="-IfUSNtYotDQCfkknMRN-180" style="edgeStyle=orthogonalEdgeStyle;rounded=0;orthogonalLoop=1;jettySize=auto;html=1;exitX=0.5;exitY=1;exitDx=0;exitDy=0;entryX=0;entryY=0.5;entryDx=0;entryDy=0;" edge="1" parent="1" source="-IfUSNtYotDQCfkknMRN-14" target="-IfUSNtYotDQCfkknMRN-19">
          <mxGeometry relative="1" as="geometry">
            <Array as="points">
              <mxPoint x="210" y="520" />
              <mxPoint x="510" y="520" />
              <mxPoint x="510" y="460" />
            </Array>
          </mxGeometry>
        </mxCell>
        <mxCell id="-IfUSNtYotDQCfkknMRN-14" value="&lt;font style=&quot;font-size: 28px;&quot;&gt;9&lt;/font&gt;" style="rounded=0;whiteSpace=wrap;html=1;fillColor=#dae8fc;strokeColor=#6c8ebf;" vertex="1" parent="1">
          <mxGeometry x="170" y="430" width="80" height="80" as="geometry" />
        </mxCell>
        <mxCell id="-IfUSNtYotDQCfkknMRN-15" value="&lt;font style=&quot;font-size: 28px;&quot;&gt;*&lt;/font&gt;" style="rounded=0;whiteSpace=wrap;html=1;fillColor=#dae8fc;strokeColor=#6c8ebf;" vertex="1" parent="1">
          <mxGeometry x="250" y="430" width="80" height="80" as="geometry" />
        </mxCell>
        <mxCell id="-IfUSNtYotDQCfkknMRN-16" value="&lt;font style=&quot;font-size: 28px;&quot;&gt;+&lt;/font&gt;" style="rounded=0;whiteSpace=wrap;html=1;fillColor=#dae8fc;strokeColor=#6c8ebf;" vertex="1" parent="1">
          <mxGeometry x="330" y="430" width="80" height="80" as="geometry" />
        </mxCell>
        <mxCell id="-IfUSNtYotDQCfkknMRN-17" value="&lt;font style=&quot;font-size: 28px;&quot;&gt;\0&lt;/font&gt;" style="rounded=0;whiteSpace=wrap;html=1;fillColor=#dae8fc;strokeColor=#6c8ebf;" vertex="1" parent="1">
          <mxGeometry x="410" y="430" width="80" height="80" as="geometry" />
        </mxCell>
        <mxCell id="-IfUSNtYotDQCfkknMRN-18" value="" style="shape=table;startSize=0;container=1;collapsible=0;childLayout=tableLayout;fontSize=24;fillColor=#f8cecc;strokeColor=#b85450;" vertex="1" parent="1">
          <mxGeometry x="600" y="360" width="160" height="200" as="geometry" />
        </mxCell>
        <mxCell id="-IfUSNtYotDQCfkknMRN-33" style="shape=tableRow;horizontal=0;startSize=0;swimlaneHead=0;swimlaneBody=0;strokeColor=inherit;top=0;left=0;bottom=0;right=0;collapsible=0;dropTarget=0;fillColor=none;points=[[0,0.5],[1,0.5]];portConstraint=eastwest;fontSize=16;" vertex="1" parent="-IfUSNtYotDQCfkknMRN-18">
          <mxGeometry width="160" height="40" as="geometry" />
        </mxCell>
        <mxCell id="-IfUSNtYotDQCfkknMRN-34" style="shape=partialRectangle;html=1;whiteSpace=wrap;connectable=0;strokeColor=inherit;overflow=hidden;fillColor=none;top=0;left=0;bottom=0;right=0;pointerEvents=1;fontSize=16;" vertex="1" parent="-IfUSNtYotDQCfkknMRN-33">
          <mxGeometry width="160" height="40" as="geometry">
            <mxRectangle width="160" height="40" as="alternateBounds" />
          </mxGeometry>
        </mxCell>
        <mxCell id="-IfUSNtYotDQCfkknMRN-31" style="shape=tableRow;horizontal=0;startSize=0;swimlaneHead=0;swimlaneBody=0;strokeColor=inherit;top=0;left=0;bottom=0;right=0;collapsible=0;dropTarget=0;fillColor=none;points=[[0,0.5],[1,0.5]];portConstraint=eastwest;fontSize=16;" vertex="1" parent="-IfUSNtYotDQCfkknMRN-18">
          <mxGeometry y="40" width="160" height="40" as="geometry" />
        </mxCell>
        <mxCell id="-IfUSNtYotDQCfkknMRN-32" style="shape=partialRectangle;html=1;whiteSpace=wrap;connectable=0;strokeColor=inherit;overflow=hidden;fillColor=none;top=0;left=0;bottom=0;right=0;pointerEvents=1;fontSize=16;" vertex="1" parent="-IfUSNtYotDQCfkknMRN-31">
          <mxGeometry width="160" height="40" as="geometry">
            <mxRectangle width="160" height="40" as="alternateBounds" />
          </mxGeometry>
        </mxCell>
        <mxCell id="-IfUSNtYotDQCfkknMRN-19" value="" style="shape=tableRow;horizontal=0;startSize=0;swimlaneHead=0;swimlaneBody=0;strokeColor=inherit;top=0;left=0;bottom=0;right=0;collapsible=0;dropTarget=0;fillColor=none;points=[[0,0.5],[1,0.5]];portConstraint=eastwest;fontSize=16;" vertex="1" parent="-IfUSNtYotDQCfkknMRN-18">
          <mxGeometry y="80" width="160" height="40" as="geometry" />
        </mxCell>
        <mxCell id="-IfUSNtYotDQCfkknMRN-20" value="9" style="shape=partialRectangle;html=1;whiteSpace=wrap;connectable=0;strokeColor=inherit;overflow=hidden;fillColor=none;top=0;left=0;bottom=0;right=0;pointerEvents=1;fontSize=16;" vertex="1" parent="-IfUSNtYotDQCfkknMRN-19">
          <mxGeometry width="160" height="40" as="geometry">
            <mxRectangle width="160" height="40" as="alternateBounds" />
          </mxGeometry>
        </mxCell>
        <mxCell id="-IfUSNtYotDQCfkknMRN-23" value="" style="shape=tableRow;horizontal=0;startSize=0;swimlaneHead=0;swimlaneBody=0;strokeColor=inherit;top=0;left=0;bottom=0;right=0;collapsible=0;dropTarget=0;fillColor=none;points=[[0,0.5],[1,0.5]];portConstraint=eastwest;fontSize=16;" vertex="1" parent="-IfUSNtYotDQCfkknMRN-18">
          <mxGeometry y="120" width="160" height="40" as="geometry" />
        </mxCell>
        <mxCell id="-IfUSNtYotDQCfkknMRN-24" value="6" style="shape=partialRectangle;html=1;whiteSpace=wrap;connectable=0;strokeColor=inherit;overflow=hidden;fillColor=none;top=0;left=0;bottom=0;right=0;pointerEvents=1;fontSize=16;" vertex="1" parent="-IfUSNtYotDQCfkknMRN-23">
          <mxGeometry width="160" height="40" as="geometry">
            <mxRectangle width="160" height="40" as="alternateBounds" />
          </mxGeometry>
        </mxCell>
        <mxCell id="-IfUSNtYotDQCfkknMRN-27" value="" style="shape=tableRow;horizontal=0;startSize=0;swimlaneHead=0;swimlaneBody=0;strokeColor=inherit;top=0;left=0;bottom=0;right=0;collapsible=0;dropTarget=0;fillColor=none;points=[[0,0.5],[1,0.5]];portConstraint=eastwest;fontSize=16;" vertex="1" parent="-IfUSNtYotDQCfkknMRN-18">
          <mxGeometry y="160" width="160" height="40" as="geometry" />
        </mxCell>
        <mxCell id="-IfUSNtYotDQCfkknMRN-28" value="3" style="shape=partialRectangle;html=1;whiteSpace=wrap;connectable=0;strokeColor=inherit;overflow=hidden;fillColor=none;top=0;left=0;bottom=0;right=0;pointerEvents=1;fontSize=16;" vertex="1" parent="-IfUSNtYotDQCfkknMRN-27">
          <mxGeometry width="160" height="40" as="geometry">
            <mxRectangle width="160" height="40" as="alternateBounds" />
          </mxGeometry>
        </mxCell>
        <mxCell id="-IfUSNtYotDQCfkknMRN-36" value="exp[0] = symbole" style="text;strokeColor=none;align=center;fillColor=none;html=1;verticalAlign=middle;whiteSpace=wrap;rounded=0;fontSize=19;" vertex="1" parent="1">
          <mxGeometry x="-25" y="340" width="150" height="30" as="geometry" />
        </mxCell>
        <mxCell id="-IfUSNtYotDQCfkknMRN-39" value="" style="rounded=0;whiteSpace=wrap;html=1;" vertex="1" parent="1">
          <mxGeometry x="-50" y="860" width="910" height="380" as="geometry" />
        </mxCell>
        <mxCell id="-IfUSNtYotDQCfkknMRN-40" value="&lt;font style=&quot;font-size: 28px;&quot;&gt;3&lt;/font&gt;" style="rounded=0;whiteSpace=wrap;html=1;fillColor=#dae8fc;strokeColor=#6c8ebf;" vertex="1" parent="1">
          <mxGeometry x="10" y="970" width="80" height="80" as="geometry" />
        </mxCell>
        <mxCell id="-IfUSNtYotDQCfkknMRN-41" value="&lt;font style=&quot;font-size: 28px;&quot;&gt;6&lt;/font&gt;" style="rounded=0;whiteSpace=wrap;html=1;fillColor=#dae8fc;strokeColor=#6c8ebf;" vertex="1" parent="1">
          <mxGeometry x="90" y="970" width="80" height="80" as="geometry" />
        </mxCell>
        <mxCell id="-IfUSNtYotDQCfkknMRN-42" value="&lt;font style=&quot;font-size: 28px;&quot;&gt;9&lt;/font&gt;" style="rounded=0;whiteSpace=wrap;html=1;fillColor=#dae8fc;strokeColor=#6c8ebf;" vertex="1" parent="1">
          <mxGeometry x="170" y="970" width="80" height="80" as="geometry" />
        </mxCell>
        <mxCell id="-IfUSNtYotDQCfkknMRN-43" style="edgeStyle=orthogonalEdgeStyle;rounded=0;orthogonalLoop=1;jettySize=auto;html=1;entryX=0.5;entryY=1;entryDx=0;entryDy=0;" edge="1" parent="1" source="-IfUSNtYotDQCfkknMRN-44" target="-IfUSNtYotDQCfkknMRN-58">
          <mxGeometry relative="1" as="geometry" />
        </mxCell>
        <mxCell id="-IfUSNtYotDQCfkknMRN-44" value="&lt;font style=&quot;font-size: 28px;&quot;&gt;*&lt;/font&gt;" style="rounded=0;whiteSpace=wrap;html=1;fillColor=#dae8fc;strokeColor=#6c8ebf;" vertex="1" parent="1">
          <mxGeometry x="250" y="970" width="80" height="80" as="geometry" />
        </mxCell>
        <mxCell id="-IfUSNtYotDQCfkknMRN-45" value="&lt;font style=&quot;font-size: 28px;&quot;&gt;+&lt;/font&gt;" style="rounded=0;whiteSpace=wrap;html=1;fillColor=#dae8fc;strokeColor=#6c8ebf;" vertex="1" parent="1">
          <mxGeometry x="330" y="970" width="80" height="80" as="geometry" />
        </mxCell>
        <mxCell id="-IfUSNtYotDQCfkknMRN-46" value="&lt;font style=&quot;font-size: 28px;&quot;&gt;\0&lt;/font&gt;" style="rounded=0;whiteSpace=wrap;html=1;fillColor=#dae8fc;strokeColor=#6c8ebf;" vertex="1" parent="1">
          <mxGeometry x="410" y="970" width="80" height="80" as="geometry" />
        </mxCell>
        <mxCell id="-IfUSNtYotDQCfkknMRN-47" value="" style="shape=table;startSize=0;container=1;collapsible=0;childLayout=tableLayout;fontSize=24;fillColor=#f8cecc;strokeColor=#b85450;" vertex="1" parent="1">
          <mxGeometry x="600" y="900" width="160" height="200" as="geometry" />
        </mxCell>
        <mxCell id="-IfUSNtYotDQCfkknMRN-48" style="shape=tableRow;horizontal=0;startSize=0;swimlaneHead=0;swimlaneBody=0;strokeColor=inherit;top=0;left=0;bottom=0;right=0;collapsible=0;dropTarget=0;fillColor=none;points=[[0,0.5],[1,0.5]];portConstraint=eastwest;fontSize=16;" vertex="1" parent="-IfUSNtYotDQCfkknMRN-47">
          <mxGeometry width="160" height="40" as="geometry" />
        </mxCell>
        <mxCell id="-IfUSNtYotDQCfkknMRN-49" style="shape=partialRectangle;html=1;whiteSpace=wrap;connectable=0;strokeColor=inherit;overflow=hidden;fillColor=none;top=0;left=0;bottom=0;right=0;pointerEvents=1;fontSize=16;" vertex="1" parent="-IfUSNtYotDQCfkknMRN-48">
          <mxGeometry width="160" height="40" as="geometry">
            <mxRectangle width="160" height="40" as="alternateBounds" />
          </mxGeometry>
        </mxCell>
        <mxCell id="-IfUSNtYotDQCfkknMRN-50" style="shape=tableRow;horizontal=0;startSize=0;swimlaneHead=0;swimlaneBody=0;strokeColor=inherit;top=0;left=0;bottom=0;right=0;collapsible=0;dropTarget=0;fillColor=none;points=[[0,0.5],[1,0.5]];portConstraint=eastwest;fontSize=16;" vertex="1" parent="-IfUSNtYotDQCfkknMRN-47">
          <mxGeometry y="40" width="160" height="40" as="geometry" />
        </mxCell>
        <mxCell id="-IfUSNtYotDQCfkknMRN-51" style="shape=partialRectangle;html=1;whiteSpace=wrap;connectable=0;strokeColor=inherit;overflow=hidden;fillColor=none;top=0;left=0;bottom=0;right=0;pointerEvents=1;fontSize=16;" vertex="1" parent="-IfUSNtYotDQCfkknMRN-50">
          <mxGeometry width="160" height="40" as="geometry">
            <mxRectangle width="160" height="40" as="alternateBounds" />
          </mxGeometry>
        </mxCell>
        <mxCell id="-IfUSNtYotDQCfkknMRN-52" value="" style="shape=tableRow;horizontal=0;startSize=0;swimlaneHead=0;swimlaneBody=0;strokeColor=inherit;top=0;left=0;bottom=0;right=0;collapsible=0;dropTarget=0;fillColor=none;points=[[0,0.5],[1,0.5]];portConstraint=eastwest;fontSize=16;" vertex="1" parent="-IfUSNtYotDQCfkknMRN-47">
          <mxGeometry y="80" width="160" height="40" as="geometry" />
        </mxCell>
        <mxCell id="-IfUSNtYotDQCfkknMRN-53" value="9" style="shape=partialRectangle;html=1;whiteSpace=wrap;connectable=0;strokeColor=inherit;overflow=hidden;fillColor=none;top=0;left=0;bottom=0;right=0;pointerEvents=1;fontSize=16;" vertex="1" parent="-IfUSNtYotDQCfkknMRN-52">
          <mxGeometry width="160" height="40" as="geometry">
            <mxRectangle width="160" height="40" as="alternateBounds" />
          </mxGeometry>
        </mxCell>
        <mxCell id="-IfUSNtYotDQCfkknMRN-54" value="" style="shape=tableRow;horizontal=0;startSize=0;swimlaneHead=0;swimlaneBody=0;strokeColor=inherit;top=0;left=0;bottom=0;right=0;collapsible=0;dropTarget=0;fillColor=none;points=[[0,0.5],[1,0.5]];portConstraint=eastwest;fontSize=16;" vertex="1" parent="-IfUSNtYotDQCfkknMRN-47">
          <mxGeometry y="120" width="160" height="40" as="geometry" />
        </mxCell>
        <mxCell id="-IfUSNtYotDQCfkknMRN-55" value="6" style="shape=partialRectangle;html=1;whiteSpace=wrap;connectable=0;strokeColor=inherit;overflow=hidden;fillColor=none;top=0;left=0;bottom=0;right=0;pointerEvents=1;fontSize=16;" vertex="1" parent="-IfUSNtYotDQCfkknMRN-54">
          <mxGeometry width="160" height="40" as="geometry">
            <mxRectangle width="160" height="40" as="alternateBounds" />
          </mxGeometry>
        </mxCell>
        <mxCell id="-IfUSNtYotDQCfkknMRN-56" value="" style="shape=tableRow;horizontal=0;startSize=0;swimlaneHead=0;swimlaneBody=0;strokeColor=inherit;top=0;left=0;bottom=0;right=0;collapsible=0;dropTarget=0;fillColor=none;points=[[0,0.5],[1,0.5]];portConstraint=eastwest;fontSize=16;" vertex="1" parent="-IfUSNtYotDQCfkknMRN-47">
          <mxGeometry y="160" width="160" height="40" as="geometry" />
        </mxCell>
        <mxCell id="-IfUSNtYotDQCfkknMRN-57" value="3" style="shape=partialRectangle;html=1;whiteSpace=wrap;connectable=0;strokeColor=inherit;overflow=hidden;fillColor=none;top=0;left=0;bottom=0;right=0;pointerEvents=1;fontSize=16;" vertex="1" parent="-IfUSNtYotDQCfkknMRN-56">
          <mxGeometry width="160" height="40" as="geometry">
            <mxRectangle width="160" height="40" as="alternateBounds" />
          </mxGeometry>
        </mxCell>
        <mxCell id="-IfUSNtYotDQCfkknMRN-58" value="exp[i] = symbole" style="text;strokeColor=none;align=center;fillColor=none;html=1;verticalAlign=middle;whiteSpace=wrap;rounded=0;fontSize=19;" vertex="1" parent="1">
          <mxGeometry x="215" y="900" width="150" height="30" as="geometry" />
        </mxCell>
        <mxCell id="-IfUSNtYotDQCfkknMRN-59" value="&lt;font style=&quot;font-size: 24px;&quot;&gt;6&lt;/font&gt;" style="ellipse;whiteSpace=wrap;html=1;" vertex="1" parent="1">
          <mxGeometry x="168" y="1160" width="150" height="55" as="geometry" />
        </mxCell>
        <mxCell id="-IfUSNtYotDQCfkknMRN-60" value="&lt;font style=&quot;font-size: 24px;&quot;&gt;9&lt;/font&gt;" style="ellipse;whiteSpace=wrap;html=1;" vertex="1" parent="1">
          <mxGeometry x="430" y="1160" width="150" height="55" as="geometry" />
        </mxCell>
        <mxCell id="-IfUSNtYotDQCfkknMRN-63" value="oper2" style="text;strokeColor=#d6b656;align=center;fillColor=#fff2cc;html=1;verticalAlign=middle;whiteSpace=wrap;rounded=0;fontSize=19;" vertex="1" parent="1">
          <mxGeometry x="490" y="1120" width="90" height="30" as="geometry" />
        </mxCell>
        <mxCell id="-IfUSNtYotDQCfkknMRN-66" style="edgeStyle=orthogonalEdgeStyle;rounded=0;orthogonalLoop=1;jettySize=auto;html=1;exitX=0;exitY=0.5;exitDx=0;exitDy=0;curved=1;" edge="1" parent="1" source="-IfUSNtYotDQCfkknMRN-52" target="-IfUSNtYotDQCfkknMRN-60">
          <mxGeometry relative="1" as="geometry" />
        </mxCell>
        <mxCell id="-IfUSNtYotDQCfkknMRN-68" value="oper1" style="text;strokeColor=#d6b656;align=center;fillColor=#fff2cc;html=1;verticalAlign=middle;whiteSpace=wrap;rounded=0;fontSize=19;" vertex="1" parent="1">
          <mxGeometry x="230" y="1120" width="90" height="30" as="geometry" />
        </mxCell>
        <mxCell id="-IfUSNtYotDQCfkknMRN-67" style="edgeStyle=orthogonalEdgeStyle;rounded=0;orthogonalLoop=1;jettySize=auto;html=1;exitX=0;exitY=0.5;exitDx=0;exitDy=0;entryX=0.5;entryY=0;entryDx=0;entryDy=0;curved=1;" edge="1" parent="1" source="-IfUSNtYotDQCfkknMRN-54" target="-IfUSNtYotDQCfkknMRN-59">
          <mxGeometry relative="1" as="geometry">
            <Array as="points">
              <mxPoint x="600" y="1070" />
              <mxPoint x="243" y="1070" />
            </Array>
          </mxGeometry>
        </mxCell>
        <mxCell id="-IfUSNtYotDQCfkknMRN-69" value="&lt;font style=&quot;font-size: 28px;&quot;&gt;*&lt;/font&gt;" style="rounded=0;whiteSpace=wrap;html=1;fillColor=#dae8fc;strokeColor=#6c8ebf;" vertex="1" parent="1">
          <mxGeometry x="334" y="1156.25" width="80" height="62.5" as="geometry" />
        </mxCell>
        <mxCell id="-IfUSNtYotDQCfkknMRN-70" value="symbol" style="text;strokeColor=#d6b656;align=center;fillColor=#fff2cc;html=1;verticalAlign=middle;whiteSpace=wrap;rounded=0;fontSize=19;" vertex="1" parent="1">
          <mxGeometry x="340" y="1120" width="90" height="30" as="geometry" />
        </mxCell>
        <mxCell id="-IfUSNtYotDQCfkknMRN-71" value="&lt;font style=&quot;font-size: 37px;&quot;&gt;= 54&lt;/font&gt;" style="text;strokeColor=none;align=center;fillColor=none;html=1;verticalAlign=middle;whiteSpace=wrap;rounded=0;fontSize=19;" vertex="1" parent="1">
          <mxGeometry x="600" y="1156.25" width="110" height="57.5" as="geometry" />
        </mxCell>
        <mxCell id="-IfUSNtYotDQCfkknMRN-72" value="" style="rounded=0;whiteSpace=wrap;html=1;" vertex="1" parent="1">
          <mxGeometry x="-50" y="1240" width="910" height="420" as="geometry" />
        </mxCell>
        <mxCell id="-IfUSNtYotDQCfkknMRN-73" value="&lt;font style=&quot;font-size: 28px;&quot;&gt;3&lt;/font&gt;" style="rounded=0;whiteSpace=wrap;html=1;fillColor=#dae8fc;strokeColor=#6c8ebf;" vertex="1" parent="1">
          <mxGeometry x="10" y="1350" width="80" height="80" as="geometry" />
        </mxCell>
        <mxCell id="-IfUSNtYotDQCfkknMRN-74" value="&lt;font style=&quot;font-size: 28px;&quot;&gt;6&lt;/font&gt;" style="rounded=0;whiteSpace=wrap;html=1;fillColor=#dae8fc;strokeColor=#6c8ebf;" vertex="1" parent="1">
          <mxGeometry x="90" y="1350" width="80" height="80" as="geometry" />
        </mxCell>
        <mxCell id="-IfUSNtYotDQCfkknMRN-75" value="&lt;font style=&quot;font-size: 28px;&quot;&gt;9&lt;/font&gt;" style="rounded=0;whiteSpace=wrap;html=1;fillColor=#dae8fc;strokeColor=#6c8ebf;" vertex="1" parent="1">
          <mxGeometry x="170" y="1350" width="80" height="80" as="geometry" />
        </mxCell>
        <mxCell id="-IfUSNtYotDQCfkknMRN-76" style="edgeStyle=orthogonalEdgeStyle;rounded=0;orthogonalLoop=1;jettySize=auto;html=1;entryX=0.5;entryY=1;entryDx=0;entryDy=0;" edge="1" parent="1" source="-IfUSNtYotDQCfkknMRN-77" target="-IfUSNtYotDQCfkknMRN-91">
          <mxGeometry relative="1" as="geometry" />
        </mxCell>
        <mxCell id="-IfUSNtYotDQCfkknMRN-77" value="&lt;font style=&quot;font-size: 28px;&quot;&gt;*&lt;/font&gt;" style="rounded=0;whiteSpace=wrap;html=1;fillColor=#dae8fc;strokeColor=#6c8ebf;" vertex="1" parent="1">
          <mxGeometry x="250" y="1350" width="80" height="80" as="geometry" />
        </mxCell>
        <mxCell id="-IfUSNtYotDQCfkknMRN-78" value="&lt;font style=&quot;font-size: 28px;&quot;&gt;+&lt;/font&gt;" style="rounded=0;whiteSpace=wrap;html=1;fillColor=#dae8fc;strokeColor=#6c8ebf;" vertex="1" parent="1">
          <mxGeometry x="330" y="1350" width="80" height="80" as="geometry" />
        </mxCell>
        <mxCell id="-IfUSNtYotDQCfkknMRN-79" value="&lt;font style=&quot;font-size: 28px;&quot;&gt;\0&lt;/font&gt;" style="rounded=0;whiteSpace=wrap;html=1;fillColor=#dae8fc;strokeColor=#6c8ebf;" vertex="1" parent="1">
          <mxGeometry x="410" y="1350" width="80" height="80" as="geometry" />
        </mxCell>
        <mxCell id="-IfUSNtYotDQCfkknMRN-80" value="" style="shape=table;startSize=0;container=1;collapsible=0;childLayout=tableLayout;fontSize=24;fillColor=#f8cecc;strokeColor=#b85450;" vertex="1" parent="1">
          <mxGeometry x="600" y="1280" width="160" height="200" as="geometry" />
        </mxCell>
        <mxCell id="-IfUSNtYotDQCfkknMRN-81" style="shape=tableRow;horizontal=0;startSize=0;swimlaneHead=0;swimlaneBody=0;strokeColor=inherit;top=0;left=0;bottom=0;right=0;collapsible=0;dropTarget=0;fillColor=none;points=[[0,0.5],[1,0.5]];portConstraint=eastwest;fontSize=16;" vertex="1" parent="-IfUSNtYotDQCfkknMRN-80">
          <mxGeometry width="160" height="40" as="geometry" />
        </mxCell>
        <mxCell id="-IfUSNtYotDQCfkknMRN-82" style="shape=partialRectangle;html=1;whiteSpace=wrap;connectable=0;strokeColor=inherit;overflow=hidden;fillColor=none;top=0;left=0;bottom=0;right=0;pointerEvents=1;fontSize=16;" vertex="1" parent="-IfUSNtYotDQCfkknMRN-81">
          <mxGeometry width="160" height="40" as="geometry">
            <mxRectangle width="160" height="40" as="alternateBounds" />
          </mxGeometry>
        </mxCell>
        <mxCell id="-IfUSNtYotDQCfkknMRN-83" style="shape=tableRow;horizontal=0;startSize=0;swimlaneHead=0;swimlaneBody=0;strokeColor=inherit;top=0;left=0;bottom=0;right=0;collapsible=0;dropTarget=0;fillColor=none;points=[[0,0.5],[1,0.5]];portConstraint=eastwest;fontSize=16;" vertex="1" parent="-IfUSNtYotDQCfkknMRN-80">
          <mxGeometry y="40" width="160" height="40" as="geometry" />
        </mxCell>
        <mxCell id="-IfUSNtYotDQCfkknMRN-84" style="shape=partialRectangle;html=1;whiteSpace=wrap;connectable=0;strokeColor=inherit;overflow=hidden;fillColor=none;top=0;left=0;bottom=0;right=0;pointerEvents=1;fontSize=16;" vertex="1" parent="-IfUSNtYotDQCfkknMRN-83">
          <mxGeometry width="160" height="40" as="geometry">
            <mxRectangle width="160" height="40" as="alternateBounds" />
          </mxGeometry>
        </mxCell>
        <mxCell id="-IfUSNtYotDQCfkknMRN-85" value="" style="shape=tableRow;horizontal=0;startSize=0;swimlaneHead=0;swimlaneBody=0;strokeColor=inherit;top=0;left=0;bottom=0;right=0;collapsible=0;dropTarget=0;fillColor=none;points=[[0,0.5],[1,0.5]];portConstraint=eastwest;fontSize=16;" vertex="1" parent="-IfUSNtYotDQCfkknMRN-80">
          <mxGeometry y="80" width="160" height="40" as="geometry" />
        </mxCell>
        <mxCell id="-IfUSNtYotDQCfkknMRN-86" value="" style="shape=partialRectangle;html=1;whiteSpace=wrap;connectable=0;strokeColor=inherit;overflow=hidden;fillColor=none;top=0;left=0;bottom=0;right=0;pointerEvents=1;fontSize=16;" vertex="1" parent="-IfUSNtYotDQCfkknMRN-85">
          <mxGeometry width="160" height="40" as="geometry">
            <mxRectangle width="160" height="40" as="alternateBounds" />
          </mxGeometry>
        </mxCell>
        <mxCell id="-IfUSNtYotDQCfkknMRN-87" value="" style="shape=tableRow;horizontal=0;startSize=0;swimlaneHead=0;swimlaneBody=0;strokeColor=inherit;top=0;left=0;bottom=0;right=0;collapsible=0;dropTarget=0;fillColor=none;points=[[0,0.5],[1,0.5]];portConstraint=eastwest;fontSize=16;" vertex="1" parent="-IfUSNtYotDQCfkknMRN-80">
          <mxGeometry y="120" width="160" height="40" as="geometry" />
        </mxCell>
        <mxCell id="-IfUSNtYotDQCfkknMRN-88" value="54" style="shape=partialRectangle;html=1;whiteSpace=wrap;connectable=0;strokeColor=inherit;overflow=hidden;fillColor=none;top=0;left=0;bottom=0;right=0;pointerEvents=1;fontSize=16;" vertex="1" parent="-IfUSNtYotDQCfkknMRN-87">
          <mxGeometry width="160" height="40" as="geometry">
            <mxRectangle width="160" height="40" as="alternateBounds" />
          </mxGeometry>
        </mxCell>
        <mxCell id="-IfUSNtYotDQCfkknMRN-89" value="" style="shape=tableRow;horizontal=0;startSize=0;swimlaneHead=0;swimlaneBody=0;strokeColor=inherit;top=0;left=0;bottom=0;right=0;collapsible=0;dropTarget=0;fillColor=none;points=[[0,0.5],[1,0.5]];portConstraint=eastwest;fontSize=16;" vertex="1" parent="-IfUSNtYotDQCfkknMRN-80">
          <mxGeometry y="160" width="160" height="40" as="geometry" />
        </mxCell>
        <mxCell id="-IfUSNtYotDQCfkknMRN-90" value="3" style="shape=partialRectangle;html=1;whiteSpace=wrap;connectable=0;strokeColor=inherit;overflow=hidden;fillColor=none;top=0;left=0;bottom=0;right=0;pointerEvents=1;fontSize=16;" vertex="1" parent="-IfUSNtYotDQCfkknMRN-89">
          <mxGeometry width="160" height="40" as="geometry">
            <mxRectangle width="160" height="40" as="alternateBounds" />
          </mxGeometry>
        </mxCell>
        <mxCell id="-IfUSNtYotDQCfkknMRN-91" value="exp[i] = symbole" style="text;strokeColor=none;align=center;fillColor=none;html=1;verticalAlign=middle;whiteSpace=wrap;rounded=0;fontSize=19;" vertex="1" parent="1">
          <mxGeometry x="215" y="1280" width="150" height="30" as="geometry" />
        </mxCell>
        <mxCell id="-IfUSNtYotDQCfkknMRN-92" value="&lt;font style=&quot;font-size: 24px;&quot;&gt;6&lt;/font&gt;" style="ellipse;whiteSpace=wrap;html=1;" vertex="1" parent="1">
          <mxGeometry x="134" y="1553.75" width="150" height="55" as="geometry" />
        </mxCell>
        <mxCell id="-IfUSNtYotDQCfkknMRN-93" value="&lt;font style=&quot;font-size: 24px;&quot;&gt;9&lt;/font&gt;" style="ellipse;whiteSpace=wrap;html=1;" vertex="1" parent="1">
          <mxGeometry x="396" y="1553.75" width="150" height="55" as="geometry" />
        </mxCell>
        <mxCell id="-IfUSNtYotDQCfkknMRN-94" value="&lt;font style=&quot;font-size: 28px;&quot;&gt;*&lt;/font&gt;" style="rounded=0;whiteSpace=wrap;html=1;fillColor=#dae8fc;strokeColor=#6c8ebf;" vertex="1" parent="1">
          <mxGeometry x="300" y="1550" width="80" height="62.5" as="geometry" />
        </mxCell>
        <mxCell id="-IfUSNtYotDQCfkknMRN-96" style="edgeStyle=orthogonalEdgeStyle;rounded=0;orthogonalLoop=1;jettySize=auto;html=1;exitX=1;exitY=0.5;exitDx=0;exitDy=0;entryX=1;entryY=0.5;entryDx=0;entryDy=0;" edge="1" parent="1" source="-IfUSNtYotDQCfkknMRN-95" target="-IfUSNtYotDQCfkknMRN-87">
          <mxGeometry relative="1" as="geometry" />
        </mxCell>
        <mxCell id="-IfUSNtYotDQCfkknMRN-95" value="&lt;font style=&quot;font-size: 37px;&quot;&gt;= 54&lt;/font&gt;" style="text;strokeColor=none;align=center;fillColor=none;html=1;verticalAlign=middle;whiteSpace=wrap;rounded=0;fontSize=19;" vertex="1" parent="1">
          <mxGeometry x="566" y="1550" width="110" height="57.5" as="geometry" />
        </mxCell>
        <mxCell id="-IfUSNtYotDQCfkknMRN-97" value="&lt;b&gt;&lt;font style=&quot;font-size: 18px;&quot;&gt;pop&lt;/font&gt;&lt;/b&gt;" style="rhombus;whiteSpace=wrap;html=1;" vertex="1" parent="1">
          <mxGeometry x="516" y="970" width="50" height="50" as="geometry" />
        </mxCell>
        <mxCell id="-IfUSNtYotDQCfkknMRN-98" value="&lt;b&gt;&lt;font style=&quot;font-size: 18px;&quot;&gt;pop&lt;/font&gt;&lt;/b&gt;" style="rhombus;whiteSpace=wrap;html=1;" vertex="1" parent="1">
          <mxGeometry x="530" y="1025" width="50" height="50" as="geometry" />
        </mxCell>
        <mxCell id="-IfUSNtYotDQCfkknMRN-99" value="&lt;b&gt;&lt;font style=&quot;font-size: 18px;&quot;&gt;push&lt;/font&gt;&lt;/b&gt;" style="rhombus;whiteSpace=wrap;html=1;" vertex="1" parent="1">
          <mxGeometry x="780" y="1530" width="50" height="50" as="geometry" />
        </mxCell>
        <mxCell id="-IfUSNtYotDQCfkknMRN-100" value="" style="rounded=0;whiteSpace=wrap;html=1;" vertex="1" parent="1">
          <mxGeometry x="-50" y="1660" width="910" height="420" as="geometry" />
        </mxCell>
        <mxCell id="-IfUSNtYotDQCfkknMRN-101" value="&lt;font style=&quot;font-size: 28px;&quot;&gt;3&lt;/font&gt;" style="rounded=0;whiteSpace=wrap;html=1;fillColor=#dae8fc;strokeColor=#6c8ebf;" vertex="1" parent="1">
          <mxGeometry x="10" y="1770" width="80" height="80" as="geometry" />
        </mxCell>
        <mxCell id="-IfUSNtYotDQCfkknMRN-102" value="&lt;font style=&quot;font-size: 28px;&quot;&gt;6&lt;/font&gt;" style="rounded=0;whiteSpace=wrap;html=1;fillColor=#dae8fc;strokeColor=#6c8ebf;" vertex="1" parent="1">
          <mxGeometry x="90" y="1770" width="80" height="80" as="geometry" />
        </mxCell>
        <mxCell id="-IfUSNtYotDQCfkknMRN-103" value="&lt;font style=&quot;font-size: 28px;&quot;&gt;9&lt;/font&gt;" style="rounded=0;whiteSpace=wrap;html=1;fillColor=#dae8fc;strokeColor=#6c8ebf;" vertex="1" parent="1">
          <mxGeometry x="170" y="1770" width="80" height="80" as="geometry" />
        </mxCell>
        <mxCell id="-IfUSNtYotDQCfkknMRN-104" style="edgeStyle=orthogonalEdgeStyle;rounded=0;orthogonalLoop=1;jettySize=auto;html=1;entryX=0.5;entryY=1;entryDx=0;entryDy=0;" edge="1" parent="1" target="-IfUSNtYotDQCfkknMRN-119">
          <mxGeometry relative="1" as="geometry">
            <mxPoint x="369" y="1770" as="sourcePoint" />
          </mxGeometry>
        </mxCell>
        <mxCell id="-IfUSNtYotDQCfkknMRN-105" value="&lt;font style=&quot;font-size: 28px;&quot;&gt;*&lt;/font&gt;" style="rounded=0;whiteSpace=wrap;html=1;fillColor=#dae8fc;strokeColor=#6c8ebf;" vertex="1" parent="1">
          <mxGeometry x="250" y="1770" width="80" height="80" as="geometry" />
        </mxCell>
        <mxCell id="-IfUSNtYotDQCfkknMRN-106" value="&lt;font style=&quot;font-size: 28px;&quot;&gt;+&lt;/font&gt;" style="rounded=0;whiteSpace=wrap;html=1;fillColor=#dae8fc;strokeColor=#6c8ebf;" vertex="1" parent="1">
          <mxGeometry x="330" y="1770" width="80" height="80" as="geometry" />
        </mxCell>
        <mxCell id="-IfUSNtYotDQCfkknMRN-107" value="&lt;font style=&quot;font-size: 28px;&quot;&gt;\0&lt;/font&gt;" style="rounded=0;whiteSpace=wrap;html=1;fillColor=#dae8fc;strokeColor=#6c8ebf;" vertex="1" parent="1">
          <mxGeometry x="410" y="1770" width="80" height="80" as="geometry" />
        </mxCell>
        <mxCell id="-IfUSNtYotDQCfkknMRN-108" value="" style="shape=table;startSize=0;container=1;collapsible=0;childLayout=tableLayout;fontSize=24;fillColor=#f8cecc;strokeColor=#b85450;" vertex="1" parent="1">
          <mxGeometry x="600" y="1700" width="160" height="200" as="geometry" />
        </mxCell>
        <mxCell id="-IfUSNtYotDQCfkknMRN-109" style="shape=tableRow;horizontal=0;startSize=0;swimlaneHead=0;swimlaneBody=0;strokeColor=inherit;top=0;left=0;bottom=0;right=0;collapsible=0;dropTarget=0;fillColor=none;points=[[0,0.5],[1,0.5]];portConstraint=eastwest;fontSize=16;" vertex="1" parent="-IfUSNtYotDQCfkknMRN-108">
          <mxGeometry width="160" height="40" as="geometry" />
        </mxCell>
        <mxCell id="-IfUSNtYotDQCfkknMRN-110" style="shape=partialRectangle;html=1;whiteSpace=wrap;connectable=0;strokeColor=inherit;overflow=hidden;fillColor=none;top=0;left=0;bottom=0;right=0;pointerEvents=1;fontSize=16;" vertex="1" parent="-IfUSNtYotDQCfkknMRN-109">
          <mxGeometry width="160" height="40" as="geometry">
            <mxRectangle width="160" height="40" as="alternateBounds" />
          </mxGeometry>
        </mxCell>
        <mxCell id="-IfUSNtYotDQCfkknMRN-111" style="shape=tableRow;horizontal=0;startSize=0;swimlaneHead=0;swimlaneBody=0;strokeColor=inherit;top=0;left=0;bottom=0;right=0;collapsible=0;dropTarget=0;fillColor=none;points=[[0,0.5],[1,0.5]];portConstraint=eastwest;fontSize=16;" vertex="1" parent="-IfUSNtYotDQCfkknMRN-108">
          <mxGeometry y="40" width="160" height="40" as="geometry" />
        </mxCell>
        <mxCell id="-IfUSNtYotDQCfkknMRN-112" style="shape=partialRectangle;html=1;whiteSpace=wrap;connectable=0;strokeColor=inherit;overflow=hidden;fillColor=none;top=0;left=0;bottom=0;right=0;pointerEvents=1;fontSize=16;" vertex="1" parent="-IfUSNtYotDQCfkknMRN-111">
          <mxGeometry width="160" height="40" as="geometry">
            <mxRectangle width="160" height="40" as="alternateBounds" />
          </mxGeometry>
        </mxCell>
        <mxCell id="-IfUSNtYotDQCfkknMRN-113" value="" style="shape=tableRow;horizontal=0;startSize=0;swimlaneHead=0;swimlaneBody=0;strokeColor=inherit;top=0;left=0;bottom=0;right=0;collapsible=0;dropTarget=0;fillColor=none;points=[[0,0.5],[1,0.5]];portConstraint=eastwest;fontSize=16;" vertex="1" parent="-IfUSNtYotDQCfkknMRN-108">
          <mxGeometry y="80" width="160" height="40" as="geometry" />
        </mxCell>
        <mxCell id="-IfUSNtYotDQCfkknMRN-114" value="" style="shape=partialRectangle;html=1;whiteSpace=wrap;connectable=0;strokeColor=inherit;overflow=hidden;fillColor=none;top=0;left=0;bottom=0;right=0;pointerEvents=1;fontSize=16;" vertex="1" parent="-IfUSNtYotDQCfkknMRN-113">
          <mxGeometry width="160" height="40" as="geometry">
            <mxRectangle width="160" height="40" as="alternateBounds" />
          </mxGeometry>
        </mxCell>
        <mxCell id="-IfUSNtYotDQCfkknMRN-115" value="" style="shape=tableRow;horizontal=0;startSize=0;swimlaneHead=0;swimlaneBody=0;strokeColor=inherit;top=0;left=0;bottom=0;right=0;collapsible=0;dropTarget=0;fillColor=none;points=[[0,0.5],[1,0.5]];portConstraint=eastwest;fontSize=16;" vertex="1" parent="-IfUSNtYotDQCfkknMRN-108">
          <mxGeometry y="120" width="160" height="40" as="geometry" />
        </mxCell>
        <mxCell id="-IfUSNtYotDQCfkknMRN-116" value="54" style="shape=partialRectangle;html=1;whiteSpace=wrap;connectable=0;strokeColor=inherit;overflow=hidden;fillColor=none;top=0;left=0;bottom=0;right=0;pointerEvents=1;fontSize=16;" vertex="1" parent="-IfUSNtYotDQCfkknMRN-115">
          <mxGeometry width="160" height="40" as="geometry">
            <mxRectangle width="160" height="40" as="alternateBounds" />
          </mxGeometry>
        </mxCell>
        <mxCell id="-IfUSNtYotDQCfkknMRN-117" value="" style="shape=tableRow;horizontal=0;startSize=0;swimlaneHead=0;swimlaneBody=0;strokeColor=inherit;top=0;left=0;bottom=0;right=0;collapsible=0;dropTarget=0;fillColor=none;points=[[0,0.5],[1,0.5]];portConstraint=eastwest;fontSize=16;" vertex="1" parent="-IfUSNtYotDQCfkknMRN-108">
          <mxGeometry y="160" width="160" height="40" as="geometry" />
        </mxCell>
        <mxCell id="-IfUSNtYotDQCfkknMRN-118" value="3" style="shape=partialRectangle;html=1;whiteSpace=wrap;connectable=0;strokeColor=inherit;overflow=hidden;fillColor=none;top=0;left=0;bottom=0;right=0;pointerEvents=1;fontSize=16;" vertex="1" parent="-IfUSNtYotDQCfkknMRN-117">
          <mxGeometry width="160" height="40" as="geometry">
            <mxRectangle width="160" height="40" as="alternateBounds" />
          </mxGeometry>
        </mxCell>
        <mxCell id="-IfUSNtYotDQCfkknMRN-119" value="exp[i] = symbole" style="text;strokeColor=none;align=center;fillColor=none;html=1;verticalAlign=middle;whiteSpace=wrap;rounded=0;fontSize=19;" vertex="1" parent="1">
          <mxGeometry x="294" y="1700" width="150" height="30" as="geometry" />
        </mxCell>
        <mxCell id="-IfUSNtYotDQCfkknMRN-120" value="&lt;font style=&quot;font-size: 24px;&quot;&gt;3&lt;/font&gt;" style="ellipse;whiteSpace=wrap;html=1;" vertex="1" parent="1">
          <mxGeometry x="134" y="1973.75" width="150" height="55" as="geometry" />
        </mxCell>
        <mxCell id="-IfUSNtYotDQCfkknMRN-121" value="&lt;font style=&quot;font-size: 24px;&quot;&gt;54&lt;/font&gt;" style="ellipse;whiteSpace=wrap;html=1;" vertex="1" parent="1">
          <mxGeometry x="396" y="1973.75" width="150" height="55" as="geometry" />
        </mxCell>
        <mxCell id="-IfUSNtYotDQCfkknMRN-122" value="&lt;font style=&quot;font-size: 28px;&quot;&gt;+&lt;/font&gt;" style="rounded=0;whiteSpace=wrap;html=1;fillColor=#dae8fc;strokeColor=#6c8ebf;" vertex="1" parent="1">
          <mxGeometry x="300" y="1970" width="80" height="62.5" as="geometry" />
        </mxCell>
        <mxCell id="-IfUSNtYotDQCfkknMRN-130" value="oper1" style="text;strokeColor=#d6b656;align=center;fillColor=#fff2cc;html=1;verticalAlign=middle;whiteSpace=wrap;rounded=0;fontSize=19;" vertex="1" parent="1">
          <mxGeometry x="204" y="1930" width="90" height="30" as="geometry" />
        </mxCell>
        <mxCell id="-IfUSNtYotDQCfkknMRN-129" style="edgeStyle=orthogonalEdgeStyle;rounded=0;orthogonalLoop=1;jettySize=auto;html=1;exitX=0;exitY=0.5;exitDx=0;exitDy=0;entryX=0.5;entryY=0;entryDx=0;entryDy=0;curved=1;" edge="1" parent="1" source="-IfUSNtYotDQCfkknMRN-117" target="-IfUSNtYotDQCfkknMRN-120">
          <mxGeometry relative="1" as="geometry" />
        </mxCell>
        <mxCell id="-IfUSNtYotDQCfkknMRN-131" value="oper2" style="text;strokeColor=#d6b656;align=center;fillColor=#fff2cc;html=1;verticalAlign=middle;whiteSpace=wrap;rounded=0;fontSize=19;" vertex="1" parent="1">
          <mxGeometry x="460" y="1930" width="90" height="30" as="geometry" />
        </mxCell>
        <mxCell id="-IfUSNtYotDQCfkknMRN-128" style="edgeStyle=orthogonalEdgeStyle;rounded=0;orthogonalLoop=1;jettySize=auto;html=1;entryX=0.5;entryY=0;entryDx=0;entryDy=0;curved=1;" edge="1" parent="1" source="-IfUSNtYotDQCfkknMRN-115" target="-IfUSNtYotDQCfkknMRN-121">
          <mxGeometry relative="1" as="geometry" />
        </mxCell>
        <mxCell id="-IfUSNtYotDQCfkknMRN-132" value="symbol" style="text;strokeColor=#d6b656;align=center;fillColor=#fff2cc;html=1;verticalAlign=middle;whiteSpace=wrap;rounded=0;fontSize=19;" vertex="1" parent="1">
          <mxGeometry x="318" y="1930" width="90" height="30" as="geometry" />
        </mxCell>
        <mxCell id="-IfUSNtYotDQCfkknMRN-133" value="&lt;font style=&quot;font-size: 37px;&quot;&gt;= 57&lt;/font&gt;" style="text;strokeColor=none;align=center;fillColor=none;html=1;verticalAlign=middle;whiteSpace=wrap;rounded=0;fontSize=19;" vertex="1" parent="1">
          <mxGeometry x="590" y="1973.75" width="110" height="57.5" as="geometry" />
        </mxCell>
        <mxCell id="-IfUSNtYotDQCfkknMRN-134" value="&lt;b&gt;&lt;font style=&quot;font-size: 18px;&quot;&gt;pop&lt;/font&gt;&lt;/b&gt;" style="rhombus;whiteSpace=wrap;html=1;" vertex="1" parent="1">
          <mxGeometry x="516" y="1810" width="50" height="50" as="geometry" />
        </mxCell>
        <mxCell id="-IfUSNtYotDQCfkknMRN-135" value="&lt;b&gt;&lt;font style=&quot;font-size: 18px;&quot;&gt;pop&lt;/font&gt;&lt;/b&gt;" style="rhombus;whiteSpace=wrap;html=1;" vertex="1" parent="1">
          <mxGeometry x="530" y="1870" width="50" height="50" as="geometry" />
        </mxCell>
        <mxCell id="-IfUSNtYotDQCfkknMRN-136" value="" style="rounded=0;whiteSpace=wrap;html=1;" vertex="1" parent="1">
          <mxGeometry x="-50" y="2080" width="910" height="420" as="geometry" />
        </mxCell>
        <mxCell id="-IfUSNtYotDQCfkknMRN-137" value="&lt;font style=&quot;font-size: 28px;&quot;&gt;3&lt;/font&gt;" style="rounded=0;whiteSpace=wrap;html=1;fillColor=#dae8fc;strokeColor=#6c8ebf;" vertex="1" parent="1">
          <mxGeometry x="10" y="2190" width="80" height="80" as="geometry" />
        </mxCell>
        <mxCell id="-IfUSNtYotDQCfkknMRN-138" value="&lt;font style=&quot;font-size: 28px;&quot;&gt;6&lt;/font&gt;" style="rounded=0;whiteSpace=wrap;html=1;fillColor=#dae8fc;strokeColor=#6c8ebf;" vertex="1" parent="1">
          <mxGeometry x="90" y="2190" width="80" height="80" as="geometry" />
        </mxCell>
        <mxCell id="-IfUSNtYotDQCfkknMRN-139" value="&lt;font style=&quot;font-size: 28px;&quot;&gt;9&lt;/font&gt;" style="rounded=0;whiteSpace=wrap;html=1;fillColor=#dae8fc;strokeColor=#6c8ebf;" vertex="1" parent="1">
          <mxGeometry x="170" y="2190" width="80" height="80" as="geometry" />
        </mxCell>
        <mxCell id="-IfUSNtYotDQCfkknMRN-140" style="edgeStyle=orthogonalEdgeStyle;rounded=0;orthogonalLoop=1;jettySize=auto;html=1;entryX=0.5;entryY=1;entryDx=0;entryDy=0;" edge="1" parent="1" target="-IfUSNtYotDQCfkknMRN-155">
          <mxGeometry relative="1" as="geometry">
            <mxPoint x="369" y="2190" as="sourcePoint" />
          </mxGeometry>
        </mxCell>
        <mxCell id="-IfUSNtYotDQCfkknMRN-141" value="&lt;font style=&quot;font-size: 28px;&quot;&gt;*&lt;/font&gt;" style="rounded=0;whiteSpace=wrap;html=1;fillColor=#dae8fc;strokeColor=#6c8ebf;" vertex="1" parent="1">
          <mxGeometry x="250" y="2190" width="80" height="80" as="geometry" />
        </mxCell>
        <mxCell id="-IfUSNtYotDQCfkknMRN-142" value="&lt;font style=&quot;font-size: 28px;&quot;&gt;+&lt;/font&gt;" style="rounded=0;whiteSpace=wrap;html=1;fillColor=#dae8fc;strokeColor=#6c8ebf;" vertex="1" parent="1">
          <mxGeometry x="330" y="2190" width="80" height="80" as="geometry" />
        </mxCell>
        <mxCell id="-IfUSNtYotDQCfkknMRN-143" value="&lt;font style=&quot;font-size: 28px;&quot;&gt;\0&lt;/font&gt;" style="rounded=0;whiteSpace=wrap;html=1;fillColor=#dae8fc;strokeColor=#6c8ebf;" vertex="1" parent="1">
          <mxGeometry x="410" y="2190" width="80" height="80" as="geometry" />
        </mxCell>
        <mxCell id="-IfUSNtYotDQCfkknMRN-144" value="" style="shape=table;startSize=0;container=1;collapsible=0;childLayout=tableLayout;fontSize=24;fillColor=#f8cecc;strokeColor=#b85450;" vertex="1" parent="1">
          <mxGeometry x="600" y="2120" width="160" height="200" as="geometry" />
        </mxCell>
        <mxCell id="-IfUSNtYotDQCfkknMRN-145" style="shape=tableRow;horizontal=0;startSize=0;swimlaneHead=0;swimlaneBody=0;strokeColor=inherit;top=0;left=0;bottom=0;right=0;collapsible=0;dropTarget=0;fillColor=none;points=[[0,0.5],[1,0.5]];portConstraint=eastwest;fontSize=16;" vertex="1" parent="-IfUSNtYotDQCfkknMRN-144">
          <mxGeometry width="160" height="40" as="geometry" />
        </mxCell>
        <mxCell id="-IfUSNtYotDQCfkknMRN-146" style="shape=partialRectangle;html=1;whiteSpace=wrap;connectable=0;strokeColor=inherit;overflow=hidden;fillColor=none;top=0;left=0;bottom=0;right=0;pointerEvents=1;fontSize=16;" vertex="1" parent="-IfUSNtYotDQCfkknMRN-145">
          <mxGeometry width="160" height="40" as="geometry">
            <mxRectangle width="160" height="40" as="alternateBounds" />
          </mxGeometry>
        </mxCell>
        <mxCell id="-IfUSNtYotDQCfkknMRN-147" style="shape=tableRow;horizontal=0;startSize=0;swimlaneHead=0;swimlaneBody=0;strokeColor=inherit;top=0;left=0;bottom=0;right=0;collapsible=0;dropTarget=0;fillColor=none;points=[[0,0.5],[1,0.5]];portConstraint=eastwest;fontSize=16;" vertex="1" parent="-IfUSNtYotDQCfkknMRN-144">
          <mxGeometry y="40" width="160" height="40" as="geometry" />
        </mxCell>
        <mxCell id="-IfUSNtYotDQCfkknMRN-148" style="shape=partialRectangle;html=1;whiteSpace=wrap;connectable=0;strokeColor=inherit;overflow=hidden;fillColor=none;top=0;left=0;bottom=0;right=0;pointerEvents=1;fontSize=16;" vertex="1" parent="-IfUSNtYotDQCfkknMRN-147">
          <mxGeometry width="160" height="40" as="geometry">
            <mxRectangle width="160" height="40" as="alternateBounds" />
          </mxGeometry>
        </mxCell>
        <mxCell id="-IfUSNtYotDQCfkknMRN-149" value="" style="shape=tableRow;horizontal=0;startSize=0;swimlaneHead=0;swimlaneBody=0;strokeColor=inherit;top=0;left=0;bottom=0;right=0;collapsible=0;dropTarget=0;fillColor=none;points=[[0,0.5],[1,0.5]];portConstraint=eastwest;fontSize=16;" vertex="1" parent="-IfUSNtYotDQCfkknMRN-144">
          <mxGeometry y="80" width="160" height="40" as="geometry" />
        </mxCell>
        <mxCell id="-IfUSNtYotDQCfkknMRN-150" value="" style="shape=partialRectangle;html=1;whiteSpace=wrap;connectable=0;strokeColor=inherit;overflow=hidden;fillColor=none;top=0;left=0;bottom=0;right=0;pointerEvents=1;fontSize=16;" vertex="1" parent="-IfUSNtYotDQCfkknMRN-149">
          <mxGeometry width="160" height="40" as="geometry">
            <mxRectangle width="160" height="40" as="alternateBounds" />
          </mxGeometry>
        </mxCell>
        <mxCell id="-IfUSNtYotDQCfkknMRN-151" value="" style="shape=tableRow;horizontal=0;startSize=0;swimlaneHead=0;swimlaneBody=0;strokeColor=inherit;top=0;left=0;bottom=0;right=0;collapsible=0;dropTarget=0;fillColor=none;points=[[0,0.5],[1,0.5]];portConstraint=eastwest;fontSize=16;" vertex="1" parent="-IfUSNtYotDQCfkknMRN-144">
          <mxGeometry y="120" width="160" height="40" as="geometry" />
        </mxCell>
        <mxCell id="-IfUSNtYotDQCfkknMRN-152" value="" style="shape=partialRectangle;html=1;whiteSpace=wrap;connectable=0;strokeColor=inherit;overflow=hidden;fillColor=none;top=0;left=0;bottom=0;right=0;pointerEvents=1;fontSize=16;" vertex="1" parent="-IfUSNtYotDQCfkknMRN-151">
          <mxGeometry width="160" height="40" as="geometry">
            <mxRectangle width="160" height="40" as="alternateBounds" />
          </mxGeometry>
        </mxCell>
        <mxCell id="-IfUSNtYotDQCfkknMRN-153" value="" style="shape=tableRow;horizontal=0;startSize=0;swimlaneHead=0;swimlaneBody=0;strokeColor=inherit;top=0;left=0;bottom=0;right=0;collapsible=0;dropTarget=0;fillColor=none;points=[[0,0.5],[1,0.5]];portConstraint=eastwest;fontSize=16;" vertex="1" parent="-IfUSNtYotDQCfkknMRN-144">
          <mxGeometry y="160" width="160" height="40" as="geometry" />
        </mxCell>
        <mxCell id="-IfUSNtYotDQCfkknMRN-154" value="57" style="shape=partialRectangle;html=1;whiteSpace=wrap;connectable=0;strokeColor=inherit;overflow=hidden;fillColor=none;top=0;left=0;bottom=0;right=0;pointerEvents=1;fontSize=16;" vertex="1" parent="-IfUSNtYotDQCfkknMRN-153">
          <mxGeometry width="160" height="40" as="geometry">
            <mxRectangle width="160" height="40" as="alternateBounds" />
          </mxGeometry>
        </mxCell>
        <mxCell id="-IfUSNtYotDQCfkknMRN-155" value="exp[i] = symbole" style="text;strokeColor=none;align=center;fillColor=none;html=1;verticalAlign=middle;whiteSpace=wrap;rounded=0;fontSize=19;" vertex="1" parent="1">
          <mxGeometry x="294" y="2120" width="150" height="30" as="geometry" />
        </mxCell>
        <mxCell id="-IfUSNtYotDQCfkknMRN-156" value="&lt;font style=&quot;font-size: 24px;&quot;&gt;3&lt;/font&gt;" style="ellipse;whiteSpace=wrap;html=1;" vertex="1" parent="1">
          <mxGeometry x="134" y="2393.75" width="150" height="55" as="geometry" />
        </mxCell>
        <mxCell id="-IfUSNtYotDQCfkknMRN-157" value="&lt;font style=&quot;font-size: 24px;&quot;&gt;54&lt;/font&gt;" style="ellipse;whiteSpace=wrap;html=1;" vertex="1" parent="1">
          <mxGeometry x="396" y="2393.75" width="150" height="55" as="geometry" />
        </mxCell>
        <mxCell id="-IfUSNtYotDQCfkknMRN-158" value="&lt;font style=&quot;font-size: 28px;&quot;&gt;+&lt;/font&gt;" style="rounded=0;whiteSpace=wrap;html=1;fillColor=#dae8fc;strokeColor=#6c8ebf;" vertex="1" parent="1">
          <mxGeometry x="300" y="2390" width="80" height="62.5" as="geometry" />
        </mxCell>
        <mxCell id="-IfUSNtYotDQCfkknMRN-159" value="oper1" style="text;strokeColor=#d6b656;align=center;fillColor=#fff2cc;html=1;verticalAlign=middle;whiteSpace=wrap;rounded=0;fontSize=19;" vertex="1" parent="1">
          <mxGeometry x="204" y="2350" width="90" height="30" as="geometry" />
        </mxCell>
        <mxCell id="-IfUSNtYotDQCfkknMRN-161" value="oper2" style="text;strokeColor=#d6b656;align=center;fillColor=#fff2cc;html=1;verticalAlign=middle;whiteSpace=wrap;rounded=0;fontSize=19;" vertex="1" parent="1">
          <mxGeometry x="460" y="2350" width="90" height="30" as="geometry" />
        </mxCell>
        <mxCell id="-IfUSNtYotDQCfkknMRN-163" value="symbol" style="text;strokeColor=#d6b656;align=center;fillColor=#fff2cc;html=1;verticalAlign=middle;whiteSpace=wrap;rounded=0;fontSize=19;" vertex="1" parent="1">
          <mxGeometry x="318" y="2350" width="90" height="30" as="geometry" />
        </mxCell>
        <mxCell id="-IfUSNtYotDQCfkknMRN-167" style="edgeStyle=orthogonalEdgeStyle;rounded=0;orthogonalLoop=1;jettySize=auto;html=1;entryX=1;entryY=0.5;entryDx=0;entryDy=0;exitX=1;exitY=0.5;exitDx=0;exitDy=0;" edge="1" parent="1" source="-IfUSNtYotDQCfkknMRN-164" target="-IfUSNtYotDQCfkknMRN-153">
          <mxGeometry relative="1" as="geometry" />
        </mxCell>
        <mxCell id="-IfUSNtYotDQCfkknMRN-164" value="&lt;font style=&quot;font-size: 37px;&quot;&gt;= 57&lt;/font&gt;" style="text;strokeColor=none;align=center;fillColor=none;html=1;verticalAlign=middle;whiteSpace=wrap;rounded=0;fontSize=19;" vertex="1" parent="1">
          <mxGeometry x="590" y="2393.75" width="110" height="57.5" as="geometry" />
        </mxCell>
        <mxCell id="-IfUSNtYotDQCfkknMRN-168" value="&lt;b&gt;&lt;font style=&quot;font-size: 18px;&quot;&gt;push&lt;/font&gt;&lt;/b&gt;" style="rhombus;whiteSpace=wrap;html=1;" vertex="1" parent="1">
          <mxGeometry x="780" y="2370" width="50" height="50" as="geometry" />
        </mxCell>
        <mxCell id="-IfUSNtYotDQCfkknMRN-169" value="&lt;div style=&quot;color: rgb(204, 204, 204); background-color: rgb(27, 27, 27); font-family: Menlo, Monaco, &amp;quot;Courier New&amp;quot;, monospace; font-weight: normal; font-size: 15px; line-height: 18px; white-space: pre;&quot;&gt;&lt;div style=&quot;font-size: 15px;&quot;&gt;&lt;span style=&quot;color: rgb(197, 134, 192); font-size: 15px;&quot;&gt;&lt;br&gt;&lt;/span&gt;&lt;/div&gt;&lt;div style=&quot;font-size: 15px;&quot;&gt;&lt;span style=&quot;color: rgb(197, 134, 192); font-size: 15px;&quot;&gt;if&lt;/span&gt;&lt;span style=&quot;color: rgb(212, 212, 212); font-size: 15px;&quot;&gt; (symbol != &lt;/span&gt;&lt;span style=&quot;color: rgb(206, 145, 120); font-size: 15px;&quot;&gt;&#39;+&#39;&lt;/span&gt;&lt;span style=&quot;color: rgb(212, 212, 212); font-size: 15px;&quot;&gt; &amp;amp;&amp;amp; symbol!= &lt;/span&gt;&lt;span style=&quot;color: rgb(206, 145, 120); font-size: 15px;&quot;&gt;&#39;-&#39;&lt;/span&gt;&lt;span style=&quot;color: rgb(212, 212, 212); font-size: 15px;&quot;&gt; &amp;amp;&amp;amp; symbol != &lt;/span&gt;&lt;span style=&quot;color: rgb(206, 145, 120); font-size: 15px;&quot;&gt;&#39;*&#39;&lt;/span&gt;&lt;span style=&quot;color: rgb(212, 212, 212); font-size: 15px;&quot;&gt; &amp;amp;&amp;amp; symbol !=&lt;/span&gt;&lt;span style=&quot;color: rgb(206, 145, 120); font-size: 15px;&quot;&gt;&#39;/&#39;&lt;/span&gt;&lt;span style=&quot;color: rgb(212, 212, 212); font-size: 15px;&quot;&gt;){  &lt;/span&gt;&lt;/div&gt;&lt;div style=&quot;font-size: 15px;&quot;&gt;&lt;span style=&quot;color: rgb(212, 212, 212); font-size: 15px;&quot;&gt;            value = symbol - &lt;/span&gt;&lt;span style=&quot;color: rgb(206, 145, 120); font-size: 15px;&quot;&gt;&#39;0&#39;&lt;/span&gt;&lt;span style=&quot;color: rgb(212, 212, 212); font-size: 15px;&quot;&gt;;&lt;/span&gt;&lt;/div&gt;&lt;div style=&quot;font-size: 15px;&quot;&gt;&lt;span style=&quot;color: rgb(212, 212, 212); font-size: 15px;&quot;&gt;            &lt;/span&gt;&lt;span style=&quot;color: rgb(220, 220, 170); font-size: 15px;&quot;&gt;push&lt;/span&gt;&lt;span style=&quot;color: rgb(212, 212, 212); font-size: 15px;&quot;&gt;(value);&lt;/span&gt;&lt;/div&gt;&lt;div style=&quot;font-size: 15px;&quot;&gt;&lt;span style=&quot;color: rgb(212, 212, 212); font-size: 15px;&quot;&gt;        }&lt;/span&gt;&lt;/div&gt;&lt;div style=&quot;font-size: 15px;&quot;&gt;&lt;span style=&quot;color: rgb(212, 212, 212); font-size: 15px;&quot;&gt;&lt;br&gt;&lt;/span&gt;&lt;/div&gt;&lt;/div&gt;" style="text;whiteSpace=wrap;html=1;fontSize=15;" vertex="1" parent="1">
          <mxGeometry x="-50" y="200" width="640" height="100" as="geometry" />
        </mxCell>
        <mxCell id="-IfUSNtYotDQCfkknMRN-173" value="exp[1] = symbole" style="text;strokeColor=none;align=center;fillColor=none;html=1;verticalAlign=middle;whiteSpace=wrap;rounded=0;fontSize=19;" vertex="1" parent="1">
          <mxGeometry x="54" y="380" width="150" height="30" as="geometry" />
        </mxCell>
        <mxCell id="-IfUSNtYotDQCfkknMRN-174" value="exp[2] = symbole" style="text;strokeColor=none;align=center;fillColor=none;html=1;verticalAlign=middle;whiteSpace=wrap;rounded=0;fontSize=19;" vertex="1" parent="1">
          <mxGeometry x="135" y="340" width="150" height="30" as="geometry" />
        </mxCell>
        <mxCell id="-IfUSNtYotDQCfkknMRN-181" value="&lt;b&gt;&lt;font style=&quot;font-size: 18px;&quot;&gt;push&lt;/font&gt;&lt;/b&gt;" style="rhombus;whiteSpace=wrap;html=1;" vertex="1" parent="1">
          <mxGeometry x="530" y="400" width="50" height="50" as="geometry" />
        </mxCell>
        <mxCell id="-IfUSNtYotDQCfkknMRN-182" value="&lt;div style=&quot;color: rgb(204, 204, 204); background-color: rgb(27, 27, 27); font-family: Menlo, Monaco, &amp;quot;Courier New&amp;quot;, monospace; font-weight: normal; font-size: 16px; line-height: 18px; white-space: pre;&quot;&gt;&lt;div&gt;&lt;span style=&quot;color: #c586c0;&quot;&gt;&lt;br&gt;&lt;/span&gt;&lt;/div&gt;&lt;div&gt;&lt;span style=&quot;color: #c586c0;&quot;&gt;else&lt;/span&gt;&lt;span style=&quot;color: #d4d4d4;&quot;&gt; {&lt;/span&gt;&lt;/div&gt;&lt;div&gt;&lt;span style=&quot;color: #d4d4d4;&quot;&gt;            oper2 = &lt;/span&gt;&lt;span style=&quot;color: #dcdcaa;&quot;&gt;pop&lt;/span&gt;&lt;span style=&quot;color: #d4d4d4;&quot;&gt;();&lt;/span&gt;&lt;/div&gt;&lt;div&gt;&lt;span style=&quot;color: #d4d4d4;&quot;&gt;            oper1 = &lt;/span&gt;&lt;span style=&quot;color: #dcdcaa;&quot;&gt;pop&lt;/span&gt;&lt;span style=&quot;color: #d4d4d4;&quot;&gt;();&lt;/span&gt;&lt;/div&gt;&lt;div&gt;&lt;span style=&quot;color: #d4d4d4;&quot;&gt;            &lt;/span&gt;&lt;span style=&quot;color: #c586c0;&quot;&gt;switch&lt;/span&gt;&lt;span style=&quot;color: #d4d4d4;&quot;&gt;(symbol) {&lt;/span&gt;&lt;/div&gt;&lt;div&gt;&lt;span style=&quot;color: #d4d4d4;&quot;&gt;                &lt;/span&gt;&lt;span style=&quot;color: #c586c0;&quot;&gt;case&lt;/span&gt;&lt;span style=&quot;color: #d4d4d4;&quot;&gt; &lt;/span&gt;&lt;span style=&quot;color: #ce9178;&quot;&gt;&#39;+&#39;&lt;/span&gt;&lt;span style=&quot;color: #d4d4d4;&quot;&gt;: &lt;/span&gt;&lt;span style=&quot;color: #dcdcaa;&quot;&gt;push&lt;/span&gt;&lt;span style=&quot;color: #d4d4d4;&quot;&gt;(oper1 + oper2); &lt;/span&gt;&lt;span style=&quot;color: #c586c0;&quot;&gt;break&lt;/span&gt;&lt;span style=&quot;color: #d4d4d4;&quot;&gt;;    &lt;/span&gt;&lt;/div&gt;&lt;div&gt;&lt;span style=&quot;color: #d4d4d4;&quot;&gt;                &lt;/span&gt;&lt;span style=&quot;color: #c586c0;&quot;&gt;case&lt;/span&gt;&lt;span style=&quot;color: #d4d4d4;&quot;&gt; &lt;/span&gt;&lt;span style=&quot;color: #ce9178;&quot;&gt;&#39;-&#39;&lt;/span&gt;&lt;span style=&quot;color: #d4d4d4;&quot;&gt;: &lt;/span&gt;&lt;span style=&quot;color: #dcdcaa;&quot;&gt;push&lt;/span&gt;&lt;span style=&quot;color: #d4d4d4;&quot;&gt;(oper1 - oper2); &lt;/span&gt;&lt;span style=&quot;color: #c586c0;&quot;&gt;break&lt;/span&gt;&lt;span style=&quot;color: #d4d4d4;&quot;&gt;;&lt;/span&gt;&lt;/div&gt;&lt;div&gt;&lt;span style=&quot;color: #d4d4d4;&quot;&gt;                &lt;/span&gt;&lt;span style=&quot;color: #c586c0;&quot;&gt;case&lt;/span&gt;&lt;span style=&quot;color: #d4d4d4;&quot;&gt; &lt;/span&gt;&lt;span style=&quot;color: #ce9178;&quot;&gt;&#39;*&#39;&lt;/span&gt;&lt;span style=&quot;color: #d4d4d4;&quot;&gt;: &lt;/span&gt;&lt;span style=&quot;color: #dcdcaa;&quot;&gt;push&lt;/span&gt;&lt;span style=&quot;color: #d4d4d4;&quot;&gt;(oper1 * &lt;/span&gt;&lt;span style=&quot;color: #9cdcfe;&quot;&gt;oper2&lt;/span&gt;&lt;span style=&quot;color: #d4d4d4;&quot;&gt;); &lt;/span&gt;&lt;span style=&quot;color: #c586c0;&quot;&gt;break&lt;/span&gt;&lt;span style=&quot;color: #d4d4d4;&quot;&gt;;&lt;/span&gt;&lt;/div&gt;&lt;div&gt;&lt;span style=&quot;color: #d4d4d4;&quot;&gt;                &lt;/span&gt;&lt;span style=&quot;color: #c586c0;&quot;&gt;case&lt;/span&gt;&lt;span style=&quot;color: #d4d4d4;&quot;&gt; &lt;/span&gt;&lt;span style=&quot;color: #ce9178;&quot;&gt;&#39;/&#39;&lt;/span&gt;&lt;span style=&quot;color: #d4d4d4;&quot;&gt;: &lt;/span&gt;&lt;span style=&quot;color: #dcdcaa;&quot;&gt;push&lt;/span&gt;&lt;span style=&quot;color: #d4d4d4;&quot;&gt;(oper1 / oper2); &lt;/span&gt;&lt;span style=&quot;color: #c586c0;&quot;&gt;break&lt;/span&gt;&lt;span style=&quot;color: #d4d4d4;&quot;&gt;;&lt;/span&gt;&lt;/div&gt;&lt;div&gt;&lt;span style=&quot;color: #d4d4d4;&quot;&gt;            }&lt;/span&gt;&lt;/div&gt;&lt;div&gt;&lt;span style=&quot;color: #d4d4d4;&quot;&gt;        }&lt;/span&gt;&lt;/div&gt;&lt;div&gt;&lt;span style=&quot;color: #d4d4d4;&quot;&gt;&lt;br&gt;&lt;/span&gt;&lt;/div&gt;&lt;/div&gt;" style="text;whiteSpace=wrap;html=1;" vertex="1" parent="1">
          <mxGeometry x="-51" y="620" width="600" height="240" as="geometry" />
        </mxCell>
        <mxCell id="-IfUSNtYotDQCfkknMRN-183" value="&lt;div style=&quot;color: rgb(204, 204, 204); background-color: rgb(27, 27, 27); font-family: Menlo, Monaco, &amp;quot;Courier New&amp;quot;, monospace; font-weight: normal; font-size: 16px; line-height: 18px; white-space: pre;&quot;&gt;&lt;div style=&quot;font-size: 16px;&quot;&gt;&lt;br&gt;&lt;/div&gt;&lt;div style=&quot;font-size: 16px;&quot;&gt;&lt;span style=&quot;color: rgb(212, 212, 212); font-size: 16px;&quot;&gt;&lt;span style=&quot;white-space: pre;&quot;&gt;&#x9;&lt;/span&gt;}&lt;/span&gt;&lt;/div&gt;&lt;div style=&quot;font-size: 16px;&quot;&gt;&lt;span style=&quot;color: rgb(212, 212, 212); font-size: 16px;&quot;&gt;    &lt;/span&gt;&lt;span style=&quot;color: rgb(197, 134, 192); font-size: 16px;&quot;&gt;return&lt;/span&gt;&lt;span style=&quot;color: rgb(212, 212, 212); font-size: 16px;&quot;&gt; &lt;/span&gt;&lt;span style=&quot;color: rgb(220, 220, 170); font-size: 16px;&quot;&gt;pop&lt;/span&gt;&lt;span style=&quot;color: rgb(212, 212, 212); font-size: 16px;&quot;&gt;();    &lt;/span&gt;&lt;/div&gt;&lt;div style=&quot;font-size: 16px;&quot;&gt;&lt;span style=&quot;color: rgb(212, 212, 212); font-size: 16px;&quot;&gt;}&lt;/span&gt;&lt;/div&gt;&lt;div style=&quot;font-size: 16px;&quot;&gt;&lt;span style=&quot;color: rgb(212, 212, 212); font-size: 16px;&quot;&gt;&lt;br&gt;&lt;/span&gt;&lt;/div&gt;&lt;/div&gt;" style="text;whiteSpace=wrap;html=1;fontSize=16;" vertex="1" parent="1">
          <mxGeometry x="-50" y="2530" width="240" height="110" as="geometry" />
        </mxCell>
        <mxCell id="-IfUSNtYotDQCfkknMRN-213" value="" style="rounded=0;whiteSpace=wrap;html=1;" vertex="1" parent="1">
          <mxGeometry x="-50" y="2630" width="910" height="420" as="geometry" />
        </mxCell>
        <mxCell id="-IfUSNtYotDQCfkknMRN-221" value="" style="shape=table;startSize=0;container=1;collapsible=0;childLayout=tableLayout;fontSize=24;fillColor=#f8cecc;strokeColor=#b85450;" vertex="1" parent="1">
          <mxGeometry x="40" y="2730" width="160" height="200" as="geometry" />
        </mxCell>
        <mxCell id="-IfUSNtYotDQCfkknMRN-222" style="shape=tableRow;horizontal=0;startSize=0;swimlaneHead=0;swimlaneBody=0;strokeColor=inherit;top=0;left=0;bottom=0;right=0;collapsible=0;dropTarget=0;fillColor=none;points=[[0,0.5],[1,0.5]];portConstraint=eastwest;fontSize=16;" vertex="1" parent="-IfUSNtYotDQCfkknMRN-221">
          <mxGeometry width="160" height="40" as="geometry" />
        </mxCell>
        <mxCell id="-IfUSNtYotDQCfkknMRN-223" style="shape=partialRectangle;html=1;whiteSpace=wrap;connectable=0;strokeColor=inherit;overflow=hidden;fillColor=none;top=0;left=0;bottom=0;right=0;pointerEvents=1;fontSize=16;" vertex="1" parent="-IfUSNtYotDQCfkknMRN-222">
          <mxGeometry width="160" height="40" as="geometry">
            <mxRectangle width="160" height="40" as="alternateBounds" />
          </mxGeometry>
        </mxCell>
        <mxCell id="-IfUSNtYotDQCfkknMRN-224" style="shape=tableRow;horizontal=0;startSize=0;swimlaneHead=0;swimlaneBody=0;strokeColor=inherit;top=0;left=0;bottom=0;right=0;collapsible=0;dropTarget=0;fillColor=none;points=[[0,0.5],[1,0.5]];portConstraint=eastwest;fontSize=16;" vertex="1" parent="-IfUSNtYotDQCfkknMRN-221">
          <mxGeometry y="40" width="160" height="40" as="geometry" />
        </mxCell>
        <mxCell id="-IfUSNtYotDQCfkknMRN-225" style="shape=partialRectangle;html=1;whiteSpace=wrap;connectable=0;strokeColor=inherit;overflow=hidden;fillColor=none;top=0;left=0;bottom=0;right=0;pointerEvents=1;fontSize=16;" vertex="1" parent="-IfUSNtYotDQCfkknMRN-224">
          <mxGeometry width="160" height="40" as="geometry">
            <mxRectangle width="160" height="40" as="alternateBounds" />
          </mxGeometry>
        </mxCell>
        <mxCell id="-IfUSNtYotDQCfkknMRN-226" value="" style="shape=tableRow;horizontal=0;startSize=0;swimlaneHead=0;swimlaneBody=0;strokeColor=inherit;top=0;left=0;bottom=0;right=0;collapsible=0;dropTarget=0;fillColor=none;points=[[0,0.5],[1,0.5]];portConstraint=eastwest;fontSize=16;" vertex="1" parent="-IfUSNtYotDQCfkknMRN-221">
          <mxGeometry y="80" width="160" height="40" as="geometry" />
        </mxCell>
        <mxCell id="-IfUSNtYotDQCfkknMRN-227" value="" style="shape=partialRectangle;html=1;whiteSpace=wrap;connectable=0;strokeColor=inherit;overflow=hidden;fillColor=none;top=0;left=0;bottom=0;right=0;pointerEvents=1;fontSize=16;" vertex="1" parent="-IfUSNtYotDQCfkknMRN-226">
          <mxGeometry width="160" height="40" as="geometry">
            <mxRectangle width="160" height="40" as="alternateBounds" />
          </mxGeometry>
        </mxCell>
        <mxCell id="-IfUSNtYotDQCfkknMRN-228" value="" style="shape=tableRow;horizontal=0;startSize=0;swimlaneHead=0;swimlaneBody=0;strokeColor=inherit;top=0;left=0;bottom=0;right=0;collapsible=0;dropTarget=0;fillColor=none;points=[[0,0.5],[1,0.5]];portConstraint=eastwest;fontSize=16;" vertex="1" parent="-IfUSNtYotDQCfkknMRN-221">
          <mxGeometry y="120" width="160" height="40" as="geometry" />
        </mxCell>
        <mxCell id="-IfUSNtYotDQCfkknMRN-229" value="" style="shape=partialRectangle;html=1;whiteSpace=wrap;connectable=0;strokeColor=inherit;overflow=hidden;fillColor=none;top=0;left=0;bottom=0;right=0;pointerEvents=1;fontSize=16;" vertex="1" parent="-IfUSNtYotDQCfkknMRN-228">
          <mxGeometry width="160" height="40" as="geometry">
            <mxRectangle width="160" height="40" as="alternateBounds" />
          </mxGeometry>
        </mxCell>
        <mxCell id="-IfUSNtYotDQCfkknMRN-230" value="" style="shape=tableRow;horizontal=0;startSize=0;swimlaneHead=0;swimlaneBody=0;strokeColor=inherit;top=0;left=0;bottom=0;right=0;collapsible=0;dropTarget=0;fillColor=none;points=[[0,0.5],[1,0.5]];portConstraint=eastwest;fontSize=16;" vertex="1" parent="-IfUSNtYotDQCfkknMRN-221">
          <mxGeometry y="160" width="160" height="40" as="geometry" />
        </mxCell>
        <mxCell id="-IfUSNtYotDQCfkknMRN-231" value="57" style="shape=partialRectangle;html=1;whiteSpace=wrap;connectable=0;strokeColor=inherit;overflow=hidden;fillColor=none;top=0;left=0;bottom=0;right=0;pointerEvents=1;fontSize=16;" vertex="1" parent="-IfUSNtYotDQCfkknMRN-230">
          <mxGeometry width="160" height="40" as="geometry">
            <mxRectangle width="160" height="40" as="alternateBounds" />
          </mxGeometry>
        </mxCell>
        <mxCell id="-IfUSNtYotDQCfkknMRN-242" value="&lt;font style=&quot;font-size: 37px;&quot;&gt;57&lt;/font&gt;" style="text;strokeColor=none;align=center;fillColor=none;html=1;verticalAlign=middle;whiteSpace=wrap;rounded=0;fontSize=19;" vertex="1" parent="1">
          <mxGeometry x="630" y="2801.25" width="80" height="57.5" as="geometry" />
        </mxCell>
        <mxCell id="-IfUSNtYotDQCfkknMRN-243" style="edgeStyle=orthogonalEdgeStyle;rounded=0;orthogonalLoop=1;jettySize=auto;html=1;exitX=1;exitY=0.5;exitDx=0;exitDy=0;entryX=0;entryY=0.5;entryDx=0;entryDy=0;" edge="1" parent="1" source="-IfUSNtYotDQCfkknMRN-230" target="-IfUSNtYotDQCfkknMRN-242">
          <mxGeometry relative="1" as="geometry" />
        </mxCell>
        <mxCell id="-IfUSNtYotDQCfkknMRN-244" value="&lt;b&gt;&lt;font style=&quot;font-size: 18px;&quot;&gt;pop&lt;/font&gt;&lt;/b&gt;" style="rhombus;whiteSpace=wrap;html=1;" vertex="1" parent="1">
          <mxGeometry x="389" y="2780" width="50" height="50" as="geometry" />
        </mxCell>
      </root>
    </mxGraphModel>
  </diagram>
</mxfile>
